# AST/ASF file generated using VICON BodyLanguage
# -----------------------------------------------
:version 1.10
:name VICON
:units
  mass 1.0
  length 0.45
  angle deg
:documentation
   .ast/.asf automatically generated from VICON data using
   VICON BodyBuilder and BodyLanguage model FoxedUp or BRILLIANT.MOD
:root
   order TX TY TZ RX RY RZ
   axis XYZ
   position 0 0 0  
   orientation 0 0 0 
:bonedata
  begin
     id 1 
     name lhipjoint
     direction 0.623415 -0.642378 0.445763 
     length 2.49859 
     axis 0 0 0  XYZ
  end
  begin
     id 2 
     name lfemur
     direction 0.34202 -0.939693 0  
     length 6.69689  
     axis 0 0 20  XYZ
    dof rx ry rz
    limits (-160.0 20.0)
           (-70.0 70.0)
           (-60.0 70.0)
  end
  begin
     id 3 
     name ltibia
     direction 0.34202 -0.939693 0   
     length 7.37574   
     axis 0 0 20   XYZ
    dof rx
    limits (-10.0 170.0)
  end
  begin
     id 4 
     name lfoot
     direction 0.084323 -0.231675 0.969132   
     length 2.09111   
     axis -90 7.62852e-016 20   XYZ
    dof rx rz
    limits (-45.0 90.0)
           (-70.0 20.0)
  end
  begin
     id 5 
     name ltoes
     direction 1.5357e-011 -4.21957e-011 1   
     length 1.04989   
     axis -90 7.62852e-016 20   XYZ
    dof rx
    limits (-90.0 20.0)
  end
  begin
     id 6 
     name rhipjoint
     direction -0.605402 -0.653903 0.45376   
     length 2.45455  
     axis 0 0 0  XYZ 
  end
  begin
     id 7 
     name rfemur
     direction -0.34202 -0.939693 0   
     length 6.64523   
     axis 0 0 -20   XYZ
    dof rx ry rz
    limits (-160.0 20.0)
           (-70.0 70.0)
           (-70.0 60.0)
  end
  begin
     id 8 
     name rtibia
     direction -0.34202 -0.939693 0   
     length 7.3339   
     axis 0 0 -20   XYZ
    dof rx
    limits (-10.0 170.0)
 end
 begin
     id 9 
     name rfoot
     direction -0.120854 -0.332043 0.93549   
     length 2.23135  
     axis -90 -7.62852e-016 -20   XYZ
    dof rx rz
    limits (-45.0 90.0)
           (-20.0 70.0)
  end
  begin
     id 10 
     name rtoes
     direction -1.53563e-011 -4.21914e-011 1   
     length 1.10614   
     axis -90 -7.62852e-016 -20   XYZ
    dof rx
    limits (-90.0 20.0)
  end
  begin
     id 11 
     name lowerback
     direction 0.0319682 0.998615 -0.0417941   
     length 2.02718   
     axis 0 0 0   XYZ
    dof rx ry rz
    limits (-20.0 45.0)
           (-30.0 30.0)
           (-30.0 30.0)
  end
  begin
     id 12 
     name upperback
     direction 7.63181e-005 0.995808 0.0914691   
     length 1.97539   
     axis 0 0 0   XYZ
    dof rx ry rz
    limits (-20.0 45.0)
           (-30.0 30.0)
           (-30.0 30.0)
  end
  begin
     id 13 
     name thorax
     direction -0.016423 0.993627 0.111514   
     length 2.00349   
     axis 0 0 0   XYZ
    dof rx ry rz
    limits (-20.0 45.0)
           (-30.0 30.0)
           (-30.0 30.0)
  end
  begin
     id 14 
     name lowerneck
     direction -0.174763 0.981668 -0.0760716   
     length 1.71436   
     axis 0 0 0   XYZ
    dof rx ry rz
    limits (-20.0 45.0)
           (-30.0 30.0)
           (-30.0 30.0)
  end
  begin
     id 15 
     name upperneck
     direction 0.345458 0.934587 -0.0848868   
     length 1.72805   
     axis 0 0 0   XYZ
    dof rx ry rz
    limits (-20.0 45.0)
           (-30.0 30.0)
           (-30.0 30.0)
  end
  begin
     id 16
     name head
     direction 0.13001 0.989848 -0.0574291  
     length 1.767  
     axis 0 0 0   XYZ
    dof rx ry rz
    limits (-20.0 45.0)
           (-30.0 30.0)
           (-30.0 30.0)
  end
  begin
     id 17 
     name lclavicle
     direction 0.952951 0.290122 0.0878234  
     length 3.54654  
     axis 0 0 0   XYZ
    dof ry rz
    limits (-20.0 10.0)
           (0.0 20.0)
  end
  begin
     id 18 
     name lhumerus
     direction 1 -4.48957e-011 -4.56525e-028   
     length 5.19807   
     axis 180 -30 -90   XYZ
    dof rx ry rz
    limits (-60.0 90.0)
           (-90.0 90.0)
           (-90.0 90.0)
  end
  begin
     id 19
     name lradius
     direction 1 -4.48979e-011 -2.0317e-027   
     length 3.0937   
     axis 180 -30 -90   XYZ
    dof rx
    limits (-10.0 170.0)
  end
  begin
     id 20
     name lwrist
     direction 1 -4.48953e-011 -3.05809e-027   
     length 1.54685   
     axis 8.48514e-016 90 90   XYZ
    dof ry
    limits (-180.0 0.0)
 end
  begin
     id 21 
     name lhand
     direction 1 -4.48952e-011 -6.11639e-027   
     length 0.672632   
     axis 3.9013e-015 90 90   XYZ
    dof rx rz
    limits (-90.0 90.0)
           (-45.0 45.0)
  end
  begin
     id 22 
     name lfingers
     direction 1 -4.48925e-011 -1.22426e-026   
     length 0.542293   
     axis 7.80276e-015 90 90   XYZ
    dof rx
    limits (0.0 90.0)
  end
  begin
     id 23
     name lthumb
     direction 0.707107 -6.3486e-011 0.707107   
     length 0.778628   
     axis -90 45 5.37419e-014   XYZ
    dof rx rz
    limits (-45.0 45.0)
           (-45.0 45.0)
  end
  begin
     id 24 
     name rclavicle
     direction -0.960732 0.273675 -0.0457849   
     length 3.52079  
     axis 0 0 0   XYZ 
    dof ry rz
    limits (-10.0 20.0)
           (-20.0 0.0)
  end
  begin
     id 25 
     name rhumerus
     direction -1 -4.48976e-011 -1.63613e-027  
     length 5.45222   
     axis 180 30 90   XYZ
    dof rx ry rz
    limits (-90.0 60.0)
           (-90.0 90.0)
           (-90.0 90.0)
  end
  begin
     id 26 
     name rradius
     direction -1 -4.48957e-011 -7.00033e-028   
     length 3.01284   
     axis 180 30 90   XYZ
    dof rx
    limits (-10.0 170.0)
  end
  begin
     id 27 
     name rwrist
     direction -1 -4.48983e-011 -3.05543e-027   
     length 1.50642   
     axis 8.48514e-016 -90 -90   XYZ
    dof ry
    limits (-180.0 0.0)
  end
  begin
     id 28
     name rhand
     direction -1 -4.48984e-011 -6.11072e-027   
     length 0.622296   
     axis 3.9013e-015 -90 -90   XYZ
    dof rx rz
    limits (-90.0 90.0)
           (-45.0 45.0)
  end
  begin
     id 29
     name rfingers
     direction -1 -4.48865e-011 -1.22637e-026   
     length 0.501711   
     axis 7.80276e-015 -90 -90   XYZ
    dof rx
    limits (0.0 90.0)
  end
  begin
     id 30
     name rthumb
     direction -0.707107 -6.34932e-011 0.707107   
     length 0.72036   
     axis -90 -45 -5.37419e-014   XYZ
    dof rx rz
    limits (-45.0 45.0)
           (-45.0 45.0)
  end
:hierarchy
  begin
    root lhipjoint rhipjoint lowerback
    lhipjoint lfemur
    lfemur ltibia
    ltibia lfoot
    lfoot ltoes
    rhipjoint rfemur
    rfemur rtibia
    rtibia rfoot
    rfoot rtoes
    lowerback upperback
    upperback thorax
    thorax lowerneck lclavicle rclavicle
    lowerneck upperneck
    upperneck head
    lclavicle lhumerus
    lhumerus lradius
    lradius lwrist
    lwrist lhand lthumb
    lhand lfingers
    rclavicle rhumerus
    rhumerus rradius
    rradius rwrist
    rwrist rhand rthumb
    rhand rfingers
  end

#!OML:ASF H:\Not Pregnant\Project 1\Capture day 1\Session 1\non-pregnant.ASF
:FULLY-SPECIFIED
:DEGREES
580
root -5.41713 16.2461 -2.6041 189.512 -70.2566 -175.272
lowerback -3.55992 3.34695 0.0277046
upperback -9.37016 4.03343 -0.433698
thorax -7.77818 1.79467 -0.575147
lowerneck 10.2845 -8.94265 -28.8881
upperneck 0.792075 -18.1239 37.3952
head 5.21113 -10.5153 17.7029
rclavicle -3.62534e-014 3.18055e-015
rhumerus -38.3041 -13.6275 -70.3797
rradius 35.3499
rwrist 18.8935
rhand -12.1926 2.14301
rfingers 7.12502
rthumb 13.8714 -27.3744
lclavicle -3.62534e-014 3.18055e-015
lhumerus -46.9909 -5.69566 88.285
lradius 31.8901
lwrist 32.4919
lhand -7.51512 -10.1759
lfingers 7.12502
lthumb 18.3753 18.9762
rfemur -16.8188 1.90335 9.14249
rtibia 49.3466
rfoot -21.9033 16.5551
rtoes -32.0603
lfemur -26.4018 -1.53991 -22.5266
ltibia 37.6559
lfoot -22.6717 6.59834
ltoes -15.0019
581
root -5.42344 16.2585 -2.6786 190.102 -70.2133 -175.999
lowerback -3.34167 3.35297 -0.158867
upperback -9.35276 4.0447 -0.436889
thorax -7.89905 1.81467 -0.488563
lowerneck 10.318 -8.9614 -28.9056
upperneck 0.727048 -18.1342 37.3645
head 5.18825 -10.5195 17.6866
rclavicle -2.42393e-014 -1.27222e-014
rhumerus -38.4851 -13.8734 -70.174
rradius 35.2744
rwrist 18.9274
rhand -12.0044 2.17581
rfingers 7.12502
rthumb 14.0528 -27.3291
lclavicle -2.42393e-014 -1.27222e-014
lhumerus -46.9925 -6.07486 88.7284
lradius 31.9715
lwrist 32.5358
lhand -7.71803 -10.325
lfingers 7.12502
lthumb 18.1801 18.8454
rfemur -17.3278 1.57743 7.48574
rtibia 49.373
rfoot -21.1998 15.8243
rtoes -31.5764
lfemur -25.8781 -1.55344 -22.5313
ltibia 37.108
lfoot -22.5183 6.68448
ltoes -15.0952
582
root -5.43018 16.2706 -2.75436 190.594 -70.1882 -176.596
lowerback -3.15055 3.36119 -0.293578
upperback -9.33967 4.05825 -0.437507
thorax -8.0056 1.83204 -0.426577
lowerneck 10.3446 -8.98382 -28.9244
upperneck 0.66578 -18.1511 37.3396
head 5.17133 -10.5267 17.6718
rclavicle -1.68843e-014 -5.46658e-015
rhumerus -38.6808 -14.1708 -69.9648
rradius 35.1663
rwrist 18.975
rhand -11.7977 2.2081
rfingers 7.12502
rthumb 14.2519 -27.2829
lclavicle -1.68843e-014 -5.46658e-015
lhumerus -46.9808 -6.44477 89.1348
lradius 32.0579
lwrist 32.6154
lhand -7.94024 -10.4505
lfingers 7.12502
lthumb 17.9663 18.7396
rfemur -17.8351 1.22527 5.92591
rtibia 49.2086
rfoot -20.3425 15.0563
rtoes -31.0951
lfemur -25.395 -1.50475 -22.4856
ltibia 36.5861
lfoot -22.3914 6.69458
ltoes -15.246
583
root -5.43777 16.2832 -2.83127 190.992 -70.1833 -177.07
lowerback -2.99055 3.37154 -0.372454
upperback -9.32963 4.0746 -0.435506
thorax -8.09365 1.84673 -0.391052
lowerneck 10.3624 -9.00738 -28.9527
upperneck 0.60699 -18.1712 37.3245
head 5.1607 -10.5356 17.6631
rclavicle -1.60767e-014 -8.05078e-015
rhumerus -38.8947 -14.544 -69.7401
rradius 35.0302
rwrist 19.0817
rhand -11.56 2.25077
rfingers 7.12502
rthumb 14.4809 -27.2239
lclavicle -1.60767e-014 -8.05078e-015
lhumerus -46.9506 -6.78759 89.4945
lradius 32.1406
lwrist 32.7121
lhand -8.13932 -10.5646
lfingers 7.12502
lthumb 17.7748 18.6431
rfemur -18.3325 0.869883 4.46258
rtibia 48.853
rfoot -19.2974 14.2508
rtoes -30.5322
lfemur -24.9449 -1.41342 -22.3911
ltibia 36.0784
lfoot -22.2824 6.64892
ltoes -15.4507
584
root -5.44654 16.2961 -2.90891 191.3 -70.2044 -177.427
lowerback -2.8585 3.38261 -0.39197
upperback -9.32161 4.09249 -0.430767
thorax -8.16346 1.85787 -0.383886
lowerneck 10.3742 -9.03502 -28.9851
upperneck 0.546407 -18.1963 37.3129
head 5.15374 -10.5466 17.6553
rclavicle -1.72632e-014 1.16289e-014
rhumerus -39.1127 -14.9506 -69.5045
rradius 34.8546
rwrist 19.2117
rhand -11.3046 2.29877
rfingers 7.12502
rthumb 14.727 -27.1581
lclavicle -1.72632e-014 1.16289e-014
lhumerus -46.9012 -7.09587 89.8077
lradius 32.2164
lwrist 32.8178
lhand -8.31895 -10.6684
lfingers 7.12502
lthumb 17.6019 18.5548
rfemur -18.8067 0.51318 3.09682
rtibia 48.3082
rfoot -18.0722 13.3784
rtoes -29.9674
lfemur -24.5171 -1.30986 -22.2518
ltibia 35.5728
lfoot -22.1764 6.58345
ltoes -15.7294
585
root -5.45609 16.3102 -2.98811 191.552 -70.2442 -177.691
lowerback -2.75972 3.39564 -0.375074
upperback -9.32116 4.11255 -0.428127
thorax -8.21938 1.86695 -0.397356
lowerneck 10.3816 -9.06691 -29.0107
upperneck 0.482525 -18.2261 37.3062
head 5.14854 -10.5599 17.647
rclavicle 6.5102e-015 9.34288e-015
rhumerus -39.3489 -15.4171 -69.258
rradius 34.6546
rwrist 19.3889
rhand -11.0461 2.3395
rfingers 7.12502
rthumb 14.976 -27.099
lclavicle 6.5102e-015 9.34288e-015
lhumerus -46.8376 -7.38391 90.0722
lradius 32.2922
lwrist 32.9395
lhand -8.48419 -10.7545
lfingers 7.12502
lthumb 17.4429 18.4829
rfemur -19.2661 0.172542 1.83161
rtibia 47.5803
rfoot -16.6838 12.4001
rtoes -29.4907
lfemur -24.1148 -1.16506 -22.0732
ltibia 35.0525
lfoot -22.0705 6.47774
ltoes -16.0826
586
root -5.46607 16.3254 -3.06934 191.767 -70.2996 -177.885
lowerback -2.68828 3.40515 -0.346309
upperback -9.32917 4.12746 -0.419556
thorax -8.26829 1.87244 -0.409575
lowerneck 10.3836 -9.09845 -29.0362
upperneck 0.419217 -18.2534 37.2975
head 5.14323 -10.5713 17.6377
rclavicle -1.12531e-014 6.28657e-015
rhumerus -39.5884 -15.891 -69.0127
rradius 34.4232
rwrist 19.5815
rhand -10.7869 2.36817
rfingers 7.12502
rthumb 15.2258 -27.0515
lclavicle -1.12531e-014 6.28657e-015
lhumerus -46.7627 -7.63815 90.2916
lradius 32.3639
lwrist 33.0739
lhand -8.63676 -10.8301
lfingers 7.12502
lthumb 17.2961 18.4202
rfemur -19.7065 -0.145606 0.666989
rtibia 46.6769
rfoot -15.1651 11.2907
rtoes -29.2497
lfemur -23.7306 -0.976568 -21.8605
ltibia 34.5079
lfoot -21.9636 6.3257
ltoes -16.4728
587
root -5.47637 16.342 -3.15504 191.95 -70.3792 -178.048
lowerback -2.62334 3.40578 -0.348258
upperback -9.3369 4.13033 -0.400998
thorax -8.3163 1.87473 -0.393486
lowerneck 10.3862 -9.12858 -29.0669
upperneck 0.355091 -18.2797 37.2926
head 5.13841 -10.5826 17.6318
rclavicle -7.78056e-016 1.00386e-014
rhumerus -39.8349 -16.3754 -68.7625
rradius 34.1651
rwrist 19.7975
rhand -10.5381 2.387
rfingers 7.12502
rthumb 15.4654 -27.0144
lclavicle -7.78056e-016 1.00386e-014
lhumerus -46.6747 -7.85563 90.4656
lradius 32.4257
lwrist 33.2079
lhand -8.78747 -10.8913
lfingers 7.12502
lthumb 17.151 18.3718
rfemur -20.0794 -0.407028 -0.3984
rtibia 45.6063
rfoot -13.5465 10.0383
rtoes -29.2746
lfemur -23.3222 -0.733597 -21.6199
ltibia 33.9301
lfoot -21.8575 6.12583
ltoes -16.9792
588
root -5.48711 16.3595 -3.2448 192.067 -70.4841 -178.145
lowerback -2.5647 3.40248 -0.363463
upperback -9.34361 4.1283 -0.373154
thorax -8.36128 1.87608 -0.35972
lowerneck 10.3996 -9.15968 -29.0914
upperneck 0.282473 -18.3074 37.2889
head 5.1292 -10.5957 17.6255
rclavicle 1.0671e-013 2.1638e-014
rhumerus -40.0956 -16.8907 -68.4988
rradius 33.8817
rwrist 20.0484
rhand -10.2839 2.41228
rfingers 7.12502
rthumb 15.7102 -26.97
lclavicle 1.0671e-013 2.1638e-014
lhumerus -46.5818 -8.07743 90.6162
lradius 32.4884
lwrist 33.3577
lhand -8.94998 -10.9327
lfingers 7.12502
lthumb 16.9946 18.3439
rfemur -20.3803 -0.593156 -1.36054
rtibia 44.3767
rfoot -11.8601 8.66767
rtoes -29.553
lfemur -22.889 -0.450892 -21.3382
ltibia 33.3218
lfoot -21.7578 5.8769
ltoes -17.5213
589
root -5.49828 16.377 -3.33854 192.158 -70.6228 -178.231
lowerback -2.50628 3.38124 -0.406921
upperback -9.34344 4.10281 -0.33248
thorax -8.40169 1.86882 -0.295553
lowerneck 10.4066 -9.18653 -29.121
upperneck 0.215355 -18.3282 37.2819
head 5.12012 -10.6045 17.6198
rclavicle 1.1587e-014 7.19352e-015
rhumerus -40.3519 -17.4091 -68.2309
rradius 33.5672
rwrist 20.3427
rhand -10.0148 2.4672
rfingers 7.12502
rthumb 15.9694 -26.8945
lclavicle 1.1587e-014 7.19352e-015
lhumerus -46.4806 -8.26888 90.7333
lradius 32.5492
lwrist 33.5135
lhand -9.1042 -10.9678
lfingers 7.12502
lthumb 16.8461 18.3215
rfemur -20.5912 -0.696516 -2.25042
rtibia 42.9986
rfoot -10.162 7.20163
rtoes -30.0504
lfemur -22.4246 -0.164055 -21.0339
ltibia 32.6901
lfoot -21.6604 5.5978
ltoes -18.0741
590
root -5.51026 16.3941 -3.43516 192.182 -70.7982 -178.26
lowerback -2.44951 3.34524 -0.444182
upperback -9.33975 4.05854 -0.280858
thorax -8.43744 1.85246 -0.222105
lowerneck 10.412 -9.20989 -29.148
upperneck 0.156171 -18.3443 37.2698
head 5.11059 -10.6105 17.6121
rclavicle -8.91736e-015 -1.20265e-014
rhumerus -40.6148 -17.9495 -67.9485
rradius 33.2227
rwrist 20.7066
rhand -9.73401 2.56774
rfingers 7.12502
rthumb 16.2398 -26.7721
lclavicle -8.91736e-015 -1.20265e-014
lhumerus -46.3791 -8.4486 90.8276
lradius 32.6143
lwrist 33.6845
lhand -9.25316 -10.9887
lfingers 7.12502
lthumb 16.7027 18.3127
rfemur -20.7115 -0.696366 -3.07166
rtibia 41.4816
rfoot -8.50874 5.67906
rtoes -30.5885
lfemur -21.9421 0.0999438 -20.6932
ltibia 32.0526
lfoot -21.5675 5.3073
ltoes -18.6037
